# xmcd
#
# Track frame offsets:
#	150
#	19898
#	46814
#	67140
#	95616
#	124441
#	148292
#	198265
#	222269
#	245800
#	259049
#
# Disc length: 3638 seconds
#
# Revision: 19
# Processed by: cddbd v1.5.2PL0 Copyright (c) Steve Scherf et al.
# Submitted via: EasyCDDAExtractor 16.0.6.1
#
DISCID=b10e340b
DTITLE=Eric Clapton - R-629 Crossroads 2  CD 4
DYEAR=1996
DGENRE=Blues
TTITLE0=Loving You Is Sweeter Than Ever
TTITLE1=Worried Life Blues
TTITLE2=Tulsa Time
TTITLE3=Early In The Morning
TTITLE4=Wonderful Tonight
TTITLE5=Kind Hearted Woman
TTITLE6=Double Trouble
TTITLE7=Crossroads
TTITLE8=To Make Somebody Happy
TTITLE9=Cryin'
TTITLE10=Water On The Ground
EXTD=
EXTT0=
EXTT1=
EXTT2=
EXTT3=
EXTT4=
EXTT5=
EXTT6=
EXTT7=
EXTT8=
EXTT9=
EXTT10=
PLAYORDER=
